<?xml version="1.0" standalone="no"?>
<!DOCTYPE svg PUBLIC "-//W3C//DTD SVG 20010904//EN"
 "http://www.w3.org/TR/2001/REC-SVG-20010904/DTD/svg10.dtd">
<svg version="1.0" xmlns="http://www.w3.org/2000/svg"
 width="820.000000pt" height="860.000000pt" viewBox="0 0 820.000000 860.000000"
 preserveAspectRatio="xMidYMid meet">

<g transform="translate(0.000000,860.000000) scale(0.100000,-0.100000)"
fill="#000000" stroke="none">
<path d="M0 4300 l0 -4300 4100 0 4100 0 0 4300 0 4300 -4100 0 -4100 0 0
-4300z m4346 2840 c381 -43 788 -191 1104 -403 269 -180 525 -434 689 -681
201 -305 325 -630 377 -992 24 -167 25 -571 0 -743 -155 -1109 -907 -1789
-1981 -1793 -180 -1 -290 15 -426 61 -150 50 -288 134 -384 231 -27 27 -54 50
-60 50 -14 0 -8 20 -200 -600 -242 -778 -228 -742 -319 -828 -253 -240 -665
-85 -717 269 -10 71 -9 79 11 119 12 24 92 260 177 524 85 265 192 600 239
746 47 146 126 391 176 545 49 154 104 322 120 374 l31 94 -21 96 c-32 146
-40 203 -52 364 -39 505 120 864 433 982 168 63 400 50 558 -30 173 -89 256
-286 229 -548 -18 -173 -59 -299 -185 -562 -42 -88 -87 -187 -101 -220 -68
-171 -84 -353 -40 -476 57 -162 181 -283 346 -339 60 -20 78 -22 225 -17 236
8 391 49 578 151 302 165 513 473 598 871 21 96 24 137 24 325 0 234 -8 294
-67 480 -173 550 -667 977 -1273 1102 -95 20 -140 23 -335 23 -192 0 -240 -3
-330 -22 -457 -95 -845 -351 -1093 -721 -108 -161 -188 -354 -233 -562 -27
-120 -27 -448 -1 -570 30 -143 77 -276 158 -448 52 -113 66 -190 51 -289 -7
-42 -23 -101 -36 -129 -108 -235 -457 -281 -649 -86 -106 108 -259 461 -323
746 -56 245 -74 563 -45 791 67 539 309 1026 697 1407 139 137 217 200 383
309 327 218 730 362 1108 399 59 5 126 12 148 14 58 6 307 -3 411 -14z"/>
</g>
</svg>
